# xmcd
#
# Track frame offsets: 
#        150
#        17250
#        30657
#        46160
#        62747
#        78135
#        92470
#        105535
#        121117
#        136765
#        150557
#        168042
#        183947
#        199432
#        214592
#        217105
#        219155
#        221845
#        224435
#        227232
#        230457
#        233467
#        236287
#        240185
#        242697
#
# Disc length: 3272 seconds
#
# Revision: 2
# Processed by: cddbd v1.5.2PL0 Copyright (c) Steve Scherf et al.
# Submitted via: ExactAudioCopy v1.3
#
DISCID=3b0cc619
DTITLE=Various Artist - CDX 124 December 1995
DYEAR=1995
DGENRE=Country
TTITLE0=Little Texas - Country Crazy
TTITLE1=Emilio - Even If I Tried
TTITLE2=Rich McCready - Hangin' On
TTITLE3=Clay Walker - Hypnotize The Moon
TTITLE4=Tracy Lawrence - If You Loved Me
TTITLE5=Mark Chesnutt - It Wouldn't Hurt To Have Wings
TTITLE6=Lonestar - No News
TTITLE7=4 Runner - Ripples
TTITLE8=James Bonamy - She's Got A Mind Of Her Own
TTITLE9=Lorrie Morgan - Standing Tall
TTITLE10=Diamond Rio - Walkin' Away
TTITLE11=Aaron Tippin - Without Your Love
TTITLE12=Patty Loveless - You Can Feel Bad
TTITLE13=Gayle Strickland - If Love Is All You Need
TTITLE14=Confederate Railroad - Interview
TTITLE15=Confederate Railroad - Interview
TTITLE16=Confederate Railroad - Interview
TTITLE17=Confederate Railroad - Interview
TTITLE18=Confederate Railroad - Interview
TTITLE19=Confederate Railroad - Interview
TTITLE20=Confederate Railroad - Interview
TTITLE21=Confederate Railroad - Interview
TTITLE22=Confederate Railroad - Interview
TTITLE23=Tractors - PSA
TTITLE24=Tractors - PSA
EXTD=
EXTT0=
EXTT1=
EXTT2=
EXTT3=
EXTT4=
EXTT5=
EXTT6=
EXTT7=
EXTT8=
EXTT9=
EXTT10=
EXTT11=
EXTT12=
EXTT13=
EXTT14=
EXTT15=
EXTT16=
EXTT17=
EXTT18=
EXTT19=
EXTT20=
EXTT21=
EXTT22=
EXTT23=
EXTT24=
PLAYORDER=
